<svg xmlns="http://www.w3.org/2000/svg" xmlns:xlink="http://www.w3.org/1999/xlink" version="1.1" width="813px" height="598px" style="shape-rendering:geometricPrecision; text-rendering:geometricPrecision; image-rendering:optimizeQuality; fill-rule:evenodd; clip-rule:evenodd">
<g><path style="opacity:0.972" fill="#fefffe" d="M 685.5,125.5 C 723.098,124.553 759.098,131.553 793.5,146.5C 786.833,177.167 780.167,207.833 773.5,238.5C 772.833,238.833 772.167,239.167 771.5,239.5C 749.354,233.214 727.021,227.714 704.5,223C 697.5,222.333 690.5,222.333 683.5,223C 681.09,223.758 680.09,225.425 680.5,228C 682.295,232.144 685.295,235.477 689.5,238C 711.884,247.691 733.55,258.691 754.5,271C 791.948,298.284 807.448,335.118 801,381.5C 792.807,430.042 764.64,459.542 716.5,470C 684.309,475.346 652.309,474.346 620.5,467C 606.179,462.393 591.845,457.893 577.5,453.5C 583.233,419.77 589.4,386.104 596,352.5C 596.388,351.572 597.055,350.905 598,350.5C 617.893,359.364 638.06,367.531 658.5,375C 673.852,378.255 689.185,378.255 704.5,375C 705.126,374.25 705.626,373.416 706,372.5C 707.245,366.294 706.412,360.461 703.5,355C 690.337,346.418 676.337,339.418 661.5,334C 641.199,325.351 623.366,313.184 608,297.5C 586.091,268.406 579.757,236.073 589,200.5C 601.18,162.988 626.346,139.155 664.5,129C 671.608,127.593 678.608,126.426 685.5,125.5 Z M 686.5,166.5 C 705.789,166.201 724.789,168.368 743.5,173C 744.308,173.308 744.975,173.808 745.5,174.5C 744.271,179.475 743.105,184.475 742,189.5C 721.705,182.776 700.871,180.276 679.5,182C 653.783,186.047 640.45,201.047 639.5,227C 639.181,245.03 646.515,259.03 661.5,269C 681.19,279.512 701.19,289.512 721.5,299C 752.914,316.332 765.747,342.832 760,378.5C 756.381,401.787 743.548,417.62 721.5,426C 701.272,432.142 680.605,434.142 659.5,432C 647.9,431.18 636.567,429.013 625.5,425.5C 624.902,419.906 625.569,414.406 627.5,409C 634.46,410.76 641.46,412.76 648.5,415C 670.514,419.623 692.514,419.623 714.5,415C 734.025,409.477 744.859,396.643 747,376.5C 751.354,348.377 741.187,327.544 716.5,314C 703.859,307.179 690.859,301.179 677.5,296C 661.81,289.575 648.31,280.075 637,267.5C 627.347,252.879 624.014,236.879 627,219.5C 631.891,194.55 646.391,178.05 670.5,170C 675.905,168.504 681.239,167.337 686.5,166.5 Z"/></g>
<g><path style="opacity:0.974" fill="#fefffe" d="M 19.5,129.5 C 53.1667,129.5 86.8333,129.5 120.5,129.5C 120.333,140.838 120.5,152.172 121,163.5C 126.908,175.655 133.575,187.322 141,198.5C 147.84,187.49 154.174,176.156 160,164.5C 160.5,152.838 160.667,141.171 160.5,129.5C 194.833,129.5 229.167,129.5 263.5,129.5C 263.667,145.503 263.5,161.503 263,177.5C 261.031,185.771 257.697,193.438 253,200.5C 248,207.167 243,213.833 238,220.5C 224.291,242.085 210.458,263.585 196.5,285C 221.887,322.924 245.387,362.09 267,402.5C 269.066,407.363 270.732,412.363 272,417.5C 272.5,434.163 272.667,450.83 272.5,467.5C 239.167,467.5 205.833,467.5 172.5,467.5C 172.943,454.426 172.443,441.426 171,428.5C 161.614,408.723 150.948,389.723 139,371.5C 126.796,389.901 116.13,409.234 107,429.5C 105.559,442.092 105.059,454.759 105.5,467.5C 71.8333,467.5 38.1667,467.5 4.5,467.5C 4.33342,452.496 4.50008,437.496 5,422.5C 5.85635,416.597 7.52301,410.931 10,405.5C 16,394.833 22,384.167 28,373.5C 46.2983,344.401 64.4649,315.234 82.5,286C 68.6822,264.177 54.8488,242.344 41,220.5C 34.5983,209.753 28.5983,198.753 23,187.5C 21.5921,183.943 20.5921,180.276 20,176.5C 19.5001,160.837 19.3334,145.17 19.5,129.5 Z M 60.5,171.5 C 66.6783,170.183 73.0117,170.183 79.5,171.5C 86.6164,187.733 94.7831,203.4 104,218.5C 115,235.833 126,253.167 137,270.5C 139.717,273.321 142.05,272.987 144,269.5C 164.93,239.994 183.596,208.994 200,176.5C 200.813,174.564 201.313,172.564 201.5,170.5C 208.508,170.334 215.508,170.5 222.5,171C 196.2,207.961 171.533,245.961 148.5,285C 171.003,320.53 193.17,356.363 215,392.5C 219.667,401.167 224.333,409.833 229,418.5C 230.43,421.353 231.263,424.353 231.5,427.5C 225.5,427.5 219.5,427.5 213.5,427.5C 208.874,410.91 202.04,395.243 193,380.5C 176.176,351.864 158.009,324.197 138.5,297.5C 113.356,331.856 91.1896,368.189 72,406.5C 68.6536,413.178 66.487,420.178 65.5,427.5C 58.825,427.666 52.1583,427.5 45.5,427C 51.9533,414.591 58.7866,402.424 66,390.5C 88.215,355.903 110.048,321.069 131.5,286C 106.938,248.373 83.271,210.206 60.5,171.5 Z"/></g>
<g><path style="opacity:0.975" fill="#fefffe" d="M 280.5,129.5 C 315.167,129.5 349.833,129.5 384.5,129.5C 384.334,138.506 384.5,147.506 385,156.5C 413.242,192.653 441.242,228.986 469,265.5C 469.499,220.143 468.666,174.81 466.5,129.5C 501.167,129.5 535.833,129.5 570.5,129.5C 563.864,242.168 563.864,354.835 570.5,467.5C 549.164,467.667 527.831,467.5 506.5,467C 500.678,465.755 495.345,463.422 490.5,460C 484.625,453.793 479.125,447.293 474,440.5C 444.825,398.324 414.492,356.991 383,316.5C 381.811,366.875 382.644,417.209 385.5,467.5C 350.833,467.5 316.167,467.5 281.5,467.5C 284.46,409.372 286.127,351.205 286.5,293C 286.533,238.422 284.533,183.922 280.5,129.5 Z M 324.5,170.5 C 331.2,170.17 337.866,170.503 344.5,171.5C 385.576,224.653 426.409,277.987 467,331.5C 482.092,352.696 496.926,374.03 511.5,395.5C 511.833,393.5 512.167,391.5 512.5,389.5C 511.81,378.177 511.31,366.843 511,355.5C 510.661,293.831 510.161,232.164 509.5,170.5C 515.5,170.5 521.5,170.5 527.5,170.5C 523.52,256.166 523.52,341.832 527.5,427.5C 523.233,427.797 519.066,427.464 515,426.5C 494,397.167 473,367.833 452,338.5C 414.591,290.259 377.757,241.592 341.5,192.5C 341.167,197 340.833,201.5 340.5,206C 341.148,279.841 341.815,353.674 342.5,427.5C 336.5,427.5 330.5,427.5 324.5,427.5C 328.424,341.83 328.424,256.164 324.5,170.5 Z"/></g>
</svg>