<svg xmlns="http://www.w3.org/2000/svg" xmlns:xlink="http://www.w3.org/1999/xlink" version="1.1" width="808px" height="595px" style="shape-rendering:geometricPrecision; text-rendering:geometricPrecision; image-rendering:optimizeQuality; fill-rule:evenodd; clip-rule:evenodd">
<g><path style="opacity:0.972" fill="#fefffe" d="M 685.5,49.5 C 723.098,48.5532 759.098,55.5532 793.5,70.5C 786.833,101.167 780.167,131.833 773.5,162.5C 772.833,162.833 772.167,163.167 771.5,163.5C 749.354,157.214 727.021,151.714 704.5,147C 697.5,146.333 690.5,146.333 683.5,147C 681.09,147.758 680.09,149.425 680.5,152C 682.295,156.144 685.295,159.477 689.5,162C 711.884,171.691 733.55,182.691 754.5,195C 791.948,222.284 807.448,259.118 801,305.5C 792.807,354.042 764.64,383.542 716.5,394C 684.309,399.346 652.309,398.346 620.5,391C 606.179,386.393 591.845,381.893 577.5,377.5C 583.233,343.77 589.4,310.104 596,276.5C 596.388,275.572 597.055,274.905 598,274.5C 617.893,283.364 638.06,291.531 658.5,299C 673.852,302.255 689.185,302.255 704.5,299C 705.126,298.25 705.626,297.416 706,296.5C 707.245,290.294 706.412,284.461 703.5,279C 690.337,270.418 676.337,263.418 661.5,258C 641.199,249.351 623.366,237.184 608,221.5C 586.091,192.406 579.757,160.073 589,124.5C 601.18,86.9879 626.346,63.1546 664.5,53C 671.608,51.5932 678.608,50.4265 685.5,49.5 Z M 686.5,90.5 C 705.789,90.2014 724.789,92.3681 743.5,97C 744.308,97.3076 744.975,97.8076 745.5,98.5C 744.271,103.475 743.105,108.475 742,113.5C 721.705,106.776 700.871,104.276 679.5,106C 653.783,110.047 640.45,125.047 639.5,151C 639.181,169.03 646.515,183.03 661.5,193C 681.19,203.512 701.19,213.512 721.5,223C 752.914,240.332 765.747,266.832 760,302.5C 756.381,325.787 743.548,341.62 721.5,350C 701.272,356.142 680.605,358.142 659.5,356C 647.9,355.18 636.567,353.013 625.5,349.5C 624.902,343.906 625.569,338.406 627.5,333C 634.46,334.76 641.46,336.76 648.5,339C 670.514,343.623 692.514,343.623 714.5,339C 734.025,333.477 744.859,320.643 747,300.5C 751.354,272.377 741.187,251.544 716.5,238C 703.859,231.179 690.859,225.179 677.5,220C 661.81,213.575 648.31,204.075 637,191.5C 627.347,176.879 624.014,160.879 627,143.5C 631.891,118.55 646.391,102.05 670.5,94C 675.905,92.5038 681.239,91.3372 686.5,90.5 Z"/></g>
<g><path style="opacity:0.974" fill="#fefffe" d="M 19.5,53.5 C 53.1667,53.5 86.8333,53.5 120.5,53.5C 120.333,64.8382 120.5,76.1716 121,87.5C 126.908,99.6552 133.575,111.322 141,122.5C 147.84,111.49 154.174,100.156 160,88.5C 160.5,76.8381 160.667,65.1714 160.5,53.5C 194.833,53.5 229.167,53.5 263.5,53.5C 263.667,69.5035 263.5,85.5035 263,101.5C 261.031,109.771 257.697,117.438 253,124.5C 248,131.167 243,137.833 238,144.5C 224.291,166.085 210.458,187.585 196.5,209C 221.887,246.924 245.387,286.09 267,326.5C 269.066,331.363 270.732,336.363 272,341.5C 272.5,358.163 272.667,374.83 272.5,391.5C 239.167,391.5 205.833,391.5 172.5,391.5C 172.943,378.426 172.443,365.426 171,352.5C 161.614,332.723 150.948,313.723 139,295.5C 126.796,313.901 116.13,333.234 107,353.5C 105.559,366.092 105.059,378.759 105.5,391.5C 71.8333,391.5 38.1667,391.5 4.5,391.5C 4.33342,376.496 4.50008,361.496 5,346.5C 5.85635,340.597 7.52301,334.931 10,329.5C 16,318.833 22,308.167 28,297.5C 46.2983,268.401 64.4649,239.234 82.5,210C 68.6822,188.177 54.8488,166.344 41,144.5C 34.5983,133.753 28.5983,122.753 23,111.5C 21.5921,107.943 20.5921,104.276 20,100.5C 19.5001,84.8369 19.3334,69.1702 19.5,53.5 Z M 60.5,95.5 C 66.6783,94.1826 73.0117,94.1826 79.5,95.5C 86.6164,111.733 94.7831,127.4 104,142.5C 115,159.833 126,177.167 137,194.5C 139.717,197.321 142.05,196.987 144,193.5C 164.93,163.994 183.596,132.994 200,100.5C 200.813,98.5643 201.313,96.5643 201.5,94.5C 208.508,94.3337 215.508,94.5004 222.5,95C 196.2,131.961 171.533,169.961 148.5,209C 171.003,244.53 193.17,280.363 215,316.5C 219.667,325.167 224.333,333.833 229,342.5C 230.43,345.353 231.263,348.353 231.5,351.5C 225.5,351.5 219.5,351.5 213.5,351.5C 208.874,334.91 202.04,319.243 193,304.5C 176.176,275.864 158.009,248.197 138.5,221.5C 113.356,255.856 91.1896,292.189 72,330.5C 68.6536,337.178 66.487,344.178 65.5,351.5C 58.825,351.666 52.1583,351.5 45.5,351C 51.9533,338.591 58.7866,326.424 66,314.5C 88.215,279.903 110.048,245.069 131.5,210C 106.938,172.373 83.271,134.206 60.5,95.5 Z"/></g>
<g><path style="opacity:0.975" fill="#fefffe" d="M 280.5,53.5 C 315.167,53.5 349.833,53.5 384.5,53.5C 384.334,62.5062 384.5,71.5062 385,80.5C 413.242,116.653 441.242,152.986 469,189.5C 469.499,144.143 468.666,98.8098 466.5,53.5C 501.167,53.5 535.833,53.5 570.5,53.5C 563.864,166.168 563.864,278.835 570.5,391.5C 549.164,391.667 527.831,391.5 506.5,391C 500.678,389.755 495.345,387.422 490.5,384C 484.625,377.793 479.125,371.293 474,364.5C 444.825,322.324 414.492,280.991 383,240.5C 381.811,290.875 382.644,341.209 385.5,391.5C 350.833,391.5 316.167,391.5 281.5,391.5C 284.46,333.372 286.127,275.205 286.5,217C 286.533,162.422 284.533,107.922 280.5,53.5 Z M 324.5,94.5 C 331.2,94.17 337.866,94.5033 344.5,95.5C 385.576,148.653 426.409,201.987 467,255.5C 482.092,276.696 496.926,298.03 511.5,319.5C 511.833,317.5 512.167,315.5 512.5,313.5C 511.81,302.177 511.31,290.843 511,279.5C 510.661,217.831 510.161,156.164 509.5,94.5C 515.5,94.5 521.5,94.5 527.5,94.5C 523.52,180.166 523.52,265.832 527.5,351.5C 523.233,351.797 519.066,351.464 515,350.5C 494,321.167 473,291.833 452,262.5C 414.591,214.259 377.757,165.592 341.5,116.5C 341.167,121 340.833,125.5 340.5,130C 341.148,203.841 341.815,277.674 342.5,351.5C 336.5,351.5 330.5,351.5 324.5,351.5C 328.424,265.83 328.424,180.164 324.5,94.5 Z"/></g>
<g><path style="opacity:0.866" fill="#fefffe" d="M 24.5,425.5 C 26.3904,425.297 27.8904,425.963 29,427.5C 30.1667,429.833 31.3333,432.167 32.5,434.5C 37.7921,435.495 43.1254,435.828 48.5,435.5C 48.5,437.5 48.5,439.5 48.5,441.5C 46.5,441.5 44.5,441.5 42.5,441.5C 42.1866,446.442 40.8533,451.109 38.5,455.5C 42.1073,456.489 45.774,456.823 49.5,456.5C 49.5,458.5 49.5,460.5 49.5,462.5C 43.5,462.5 37.5,462.5 31.5,462.5C 31.5,465.5 31.5,468.5 31.5,471.5C 37.8333,471.5 44.1667,471.5 50.5,471.5C 50.5,459.167 50.5,446.833 50.5,434.5C 60.3187,433.27 69.9854,431.27 79.5,428.5C 81.299,428.577 82.9656,429.077 84.5,430C 85.8333,431.333 85.8333,432.667 84.5,434C 75.6881,436.796 66.6881,438.629 57.5,439.5C 57.5,445.167 57.5,450.833 57.5,456.5C 68.1667,456.5 78.8333,456.5 89.5,456.5C 89.5,458.5 89.5,460.5 89.5,462.5C 85.8333,462.5 82.1667,462.5 78.5,462.5C 78.5,478.167 78.5,493.833 78.5,509.5C 75.8333,509.5 73.1667,509.5 70.5,509.5C 70.5,493.833 70.5,478.167 70.5,462.5C 66.1667,462.5 61.8333,462.5 57.5,462.5C 58.3412,477.45 55.8412,491.783 50,505.5C 47.6968,509.027 45.0301,509.36 42,506.5C 41.3333,505.167 41.3333,503.833 42,502.5C 45.8522,499.075 45.1855,497.075 40,496.5C 37.5,491.5 35,486.5 32.5,481.5C 34.5271,479.661 36.8604,479.161 39.5,480C 42.1258,484.084 44.6258,488.25 47,492.5C 48.416,487.588 49.2493,482.588 49.5,477.5C 43.5,477.5 37.5,477.5 31.5,477.5C 31.6665,486.839 31.4998,496.173 31,505.5C 30.5,506 30,506.5 29.5,507C 25.5,507.667 21.5,507.667 17.5,507C 16.1387,505.416 15.472,503.582 15.5,501.5C 18.5,501.5 21.5,501.5 24.5,501.5C 24.5,493.5 24.5,485.5 24.5,477.5C 18.1667,477.5 11.8333,477.5 5.5,477.5C 5.5,475.5 5.5,473.5 5.5,471.5C 11.8333,471.5 18.1667,471.5 24.5,471.5C 24.5,468.5 24.5,465.5 24.5,462.5C 17.8333,462.5 11.1667,462.5 4.5,462.5C 4.5,460.5 4.5,458.5 4.5,456.5C 8.55461,456.824 12.5546,456.491 16.5,455.5C 14.959,450.879 13.6257,446.212 12.5,441.5C 10.5,441.5 8.5,441.5 6.5,441.5C 6.5,439.5 6.5,437.5 6.5,435.5C 12.2055,435.829 17.8722,435.495 23.5,434.5C 21.9239,432.021 20.9239,429.354 20.5,426.5C 22.099,426.768 23.4324,426.434 24.5,425.5 Z M 20.5,441.5 C 25.5111,441.334 30.5111,441.501 35.5,442C 33.74,446.445 32.0733,450.945 30.5,455.5C 28.2573,456.474 25.924,456.808 23.5,456.5C 22.9747,451.4 21.9747,446.4 20.5,441.5 Z"/></g>
<g><path style="opacity:0.865" fill="#fefffe" d="M 396.5,426.5 C 399.167,426.5 401.833,426.5 404.5,426.5C 403.886,430.567 402.552,434.4 400.5,438C 414.829,438.5 429.163,438.667 443.5,438.5C 443.5,440.5 443.5,442.5 443.5,444.5C 435.16,444.334 426.827,444.5 418.5,445C 425.748,454.757 435.081,461.59 446.5,465.5C 445.905,468.425 444.239,470.425 441.5,471.5C 435.477,469.406 429.977,466.406 425,462.5C 411.078,464.472 396.911,465.139 382.5,464.5C 382.649,463.448 382.483,462.448 382,461.5C 376.439,467.026 369.939,470.526 362.5,472C 359.941,470.677 359.275,468.843 360.5,466.5C 370.927,461.745 379.594,454.745 386.5,445.5C 378.528,444.502 370.528,444.169 362.5,444.5C 362.5,442.5 362.5,440.5 362.5,438.5C 372.172,438.666 381.839,438.5 391.5,438C 393.31,434.214 394.977,430.381 396.5,426.5 Z M 396.5,444.5 C 400.884,444.174 405.217,444.508 409.5,445.5C 412.643,449.811 415.977,453.978 419.5,458C 408.5,458.667 397.5,458.667 386.5,458C 390.436,453.904 393.77,449.404 396.5,444.5 Z"/></g>
<g><path style="opacity:0.906" fill="#fefffe" d="M 792.5,426.5 C 797.206,425.881 799.873,427.881 800.5,432.5C 790.976,435.464 781.309,437.964 771.5,440C 770.527,445.407 770.193,450.907 770.5,456.5C 780.833,456.5 791.167,456.5 801.5,456.5C 801.5,458.5 801.5,460.5 801.5,462.5C 797.833,462.5 794.167,462.5 790.5,462.5C 790.5,478.167 790.5,493.833 790.5,509.5C 788.167,509.5 785.833,509.5 783.5,509.5C 783.5,493.833 783.5,478.167 783.5,462.5C 779.167,462.5 774.833,462.5 770.5,462.5C 771.755,476.895 769.255,490.562 763,503.5C 761.542,505.96 759.709,508.127 757.5,510C 754.383,510.893 752.049,509.893 750.5,507C 750.759,505.739 751.426,504.739 752.5,504C 748.165,500.324 744.499,495.991 741.5,491C 741.82,489.347 742.82,488.347 744.5,488C 739.557,487.039 736.89,487.205 736.5,488.5C 736.702,490.989 736.202,493.323 735,495.5C 732.667,498.833 730.333,502.167 728,505.5C 724.557,509.508 721.391,509.342 718.5,505C 722.74,499.918 726.407,494.418 729.5,488.5C 725.217,487.508 720.884,487.174 716.5,487.5C 716.5,485.5 716.5,483.5 716.5,481.5C 719.5,481.5 722.5,481.5 725.5,481.5C 725.5,469.167 725.5,456.833 725.5,444.5C 722.833,444.5 720.167,444.5 717.5,444.5C 717.5,442.5 717.5,440.5 717.5,438.5C 720.167,438.5 722.833,438.5 725.5,438.5C 725.5,434.833 725.5,431.167 725.5,427.5C 727.833,427.5 730.167,427.5 732.5,427.5C 732.5,431.167 732.5,434.833 732.5,438.5C 737.833,438.5 743.167,438.5 748.5,438.5C 748.5,434.833 748.5,431.167 748.5,427.5C 750.833,427.5 753.167,427.5 755.5,427.5C 755.5,431.167 755.5,434.833 755.5,438.5C 757.833,438.5 760.167,438.5 762.5,438.5C 762.5,440.5 762.5,442.5 762.5,444.5C 760.167,444.5 757.833,444.5 755.5,444.5C 755.5,456.833 755.5,469.167 755.5,481.5C 757.833,481.5 760.167,481.5 762.5,481.5C 763.148,466.176 763.648,450.843 764,435.5C 773.902,433.488 783.402,430.488 792.5,426.5 Z M 732.5,444.5 C 737.833,444.5 743.167,444.5 748.5,444.5C 748.5,447.167 748.5,449.833 748.5,452.5C 743.167,452.5 737.833,452.5 732.5,452.5C 732.5,449.833 732.5,447.167 732.5,444.5 Z M 732.5,458.5 C 737.833,458.5 743.167,458.5 748.5,458.5C 748.5,461.167 748.5,463.833 748.5,466.5C 743.167,466.5 737.833,466.5 732.5,466.5C 732.5,463.833 732.5,461.167 732.5,458.5 Z M 732.5,472.5 C 737.833,472.5 743.167,472.5 748.5,472.5C 748.5,475.5 748.5,478.5 748.5,481.5C 743.167,481.5 737.833,481.5 732.5,481.5C 732.5,478.5 732.5,475.5 732.5,472.5 Z M 748.5,488.5 C 752.298,487.517 756.298,487.183 760.5,487.5C 760.075,491.607 758.575,495.274 756,498.5C 754.021,494.7 751.521,491.366 748.5,488.5 Z"/></g>
<g><path style="opacity:0.887" fill="#fefffe" d="M 369.5,474.5 C 391.833,474.5 414.167,474.5 436.5,474.5C 436.5,476.5 436.5,478.5 436.5,480.5C 426.5,480.5 416.5,480.5 406.5,480.5C 406.666,489.506 406.5,498.506 406,507.5C 405.25,508.126 404.416,508.626 403.5,509C 398.167,509.667 392.833,509.667 387.5,509C 386.139,507.416 385.472,505.582 385.5,503.5C 390.242,504.019 394.909,504.019 399.5,503.5C 399.5,495.833 399.5,488.167 399.5,480.5C 389.5,480.5 379.5,480.5 369.5,480.5C 369.5,478.5 369.5,476.5 369.5,474.5 Z"/></g>
<g><path style="opacity:0.851" fill="#fefffe" d="M 13.5,479.5 C 15.5273,479.338 17.5273,479.505 19.5,480C 20.5536,481.388 20.7203,482.888 20,484.5C 17.7545,489.326 15.2545,493.992 12.5,498.5C 9.16951,500.172 6.50284,499.505 4.5,496.5C 8.2895,491.254 11.2895,485.588 13.5,479.5 Z"/></g>
<g><path style="opacity:0.836" fill="#fefffe" d="M 380.5,484.5 C 383.206,484.575 385.873,484.908 388.5,485.5C 384.569,495.098 377.903,502.098 368.5,506.5C 364.987,506.493 363.487,504.827 364,501.5C 371.068,497.267 376.568,491.6 380.5,484.5 Z"/></g>
<g><path style="opacity:0.837" fill="#fefffe" d="M 418.5,484.5 C 419.873,484.343 421.207,484.51 422.5,485C 428.635,490.134 434.469,495.634 440,501.5C 440.62,504.971 439.12,506.971 435.5,507.5C 428.686,501.187 422.02,494.687 415.5,488C 416.544,486.826 417.544,485.659 418.5,484.5 Z"/></g>
</svg>